<svg xmlns="http://www.w3.org/2000/svg" width="210.851" height="248.415" viewBox="0 0 210.851 248.415"><defs><style>.a{fill:#fff;}</style></defs><g transform="translate(0 0)"><path class="a" d="M248.2,1099.575v-74.73l63.933-28.467v1.675q0,35.463,0,70.925c0,3.468-1.364,5.5-4.555,6.783q-27.341,11-54.685,21.988c-1.189.478-2.376.965-3.566,1.438C248.99,1099.322,248.642,1099.425,248.2,1099.575Z" transform="translate(-138.347 -906.001)"/><path class="a" d="M242.244,1024.649v75.778c-.657-.244-1.154-.416-1.641-.611q-25.241-10.068-50.482-20.142c-1.959-.782-3.922-1.553-5.874-2.354a6.942,6.942,0,0,1-4.6-6.6c-.014-.331-.005-.662-.005-.994V996.6Z" transform="translate(-138.685 -906)"/><path class="a" d="M278.946,938.267a26.284,26.284,0,0,1-3.274,12.479,48.892,48.892,0,0,1-2.515,4.422c-3.683,5.609-6.881,11.5-10.224,17.311q-5.947,10.327-11.835,20.687c-.656,1.15-1.26,2.328-1.9,3.489a13.462,13.462,0,0,1-2.681,3.7c-.975.872-1.682.952-2.6.023a17.4,17.4,0,0,1-2.458-3.092Q230.2,979,219,960.675c-1.558-2.538-3.244-5-4.767-7.558a32.3,32.3,0,0,1-4.035-9.831,26.461,26.461,0,0,1,1.632-15.813,32.033,32.033,0,0,1,20.033-18.745c12.748-4.37,24.679-2.5,35.34,5.867a30.188,30.188,0,0,1,11.222,18.491c.143.73.261,1.468.331,2.208C278.854,936.281,278.888,937.275,278.946,938.267Zm-17.481,2.856c.013-4.812-.906-8.2-2.812-11.314a16.5,16.5,0,0,0-26.6-2.711,19.374,19.374,0,0,0-.032,25.636,16.351,16.351,0,0,0,23.453,1.173A18.018,18.018,0,0,0,261.465,941.123Z" transform="translate(-138.537 -906.444)"/><path class="a" d="M268.223,973.575,309.867,990.8c-.552.273-.9.464-1.267.627q-30.6,13.633-61.208,27.266a4.166,4.166,0,0,1-3.586-.009q-30.853-13.839-61.711-27.668c-.332-.149-.653-.319-1.227-.6.643-.315,1.086-.565,1.555-.756q9.307-3.791,18.62-7.567l18.968-7.7c.418-.169.841-.326,1.334-.516.237.334.464.618.653.925q6.75,10.933,13.487,21.873c.759,1.233,1.421,2.524,2.182,3.755a14.486,14.486,0,0,0,3.227,3.746,6.627,6.627,0,0,0,8.864,0,16.344,16.344,0,0,0,3.822-4.847q6.958-12.249,13.909-24.5C267.709,974.444,267.939,974.06,268.223,973.575Z" transform="translate(-138.679 -906.113)"/><path class="a" d="M182.644,1152.888h-5.267v-1.367c0-3.353.018-6.7-.013-10.057a9.679,9.679,0,0,0-.3-2.449,2.854,2.854,0,0,0-3.756-2.077,5.421,5.421,0,0,0-3.882,5.036c-.006,3.145,0,6.291,0,9.436v1.437h-5.188v-20.278h4.65v3.379c.41-.449.618-.675.823-.9,2.4-2.666,5.426-3.326,8.812-2.66a4.744,4.744,0,0,1,3.263,2.654c.174.325.3.672.5,1.118.253-.28.475-.5.668-.743a8.358,8.358,0,0,1,8.39-3.129,4.868,4.868,0,0,1,3.681,2.851,9.9,9.9,0,0,1,.908,4.34c.051,4.262.018,8.526.014,12.789a6.427,6.427,0,0,1-.086.656c-1.679.044-3.349.021-5.148.011-.024-.518-.061-.958-.061-1.4-.006-3.27.022-6.54-.019-9.809a10.725,10.725,0,0,0-.354-2.812,2.8,2.8,0,0,0-3.7-1.981,5.584,5.584,0,0,0-3.936,5.154c-.007,3.1,0,6.208,0,9.313Z" transform="translate(-138.761 -905.331)"/><path class="a" d="M138.886,1149.7c.8-1.561,1.552-3.022,2.346-4.572.345.205.615.36.878.526a15.524,15.524,0,0,0,8.99,2.757,8.55,8.55,0,0,0,2.068-.348,2.507,2.507,0,0,0,.683-4.547,10.268,10.268,0,0,0-2.11-1.022c-1.566-.527-3.181-.914-4.74-1.455a25.21,25.21,0,0,1-3.878-1.618,5.873,5.873,0,0,1-3.11-5.426c-.06-4.371,2.449-7.548,6.94-8.564a15.966,15.966,0,0,1,12.643,2.584c.064.042.1.13.206.274l-2.285,4.2c-.352-.208-.654-.384-.953-.565a12.318,12.318,0,0,0-7.038-2.051,7.435,7.435,0,0,0-2.054.4,2.553,2.553,0,0,0-1.813,2.291,2.4,2.4,0,0,0,1.412,2.653,30.321,30.321,0,0,0,3.484,1.268c1.456.464,2.935.857,4.4,1.293.355.107.7.262,1.042.4,4.483,1.791,5.543,5.483,4.47,9.488a6.8,6.8,0,0,1-3.543,4.276,12.866,12.866,0,0,1-6.237,1.393,20.309,20.309,0,0,1-10.972-3.049C139.474,1150.135,139.248,1149.957,138.886,1149.7Z" transform="translate(-138.886 -905.366)"/><path class="a" d="M213.329,1150.046c-.3.272-.561.516-.826.758a9.1,9.1,0,0,1-8.492,2.331,6.376,6.376,0,0,1-4.971-5.261,5.993,5.993,0,0,1,3.64-6.541,12.853,12.853,0,0,1,8.965-.567c.274.07.548.144.819.215A3.8,3.8,0,0,0,209.69,1136a8.709,8.709,0,0,0-6,.966c-.658.328-1.291.7-2.013,1.1-.537-1.109-1.037-2.142-1.581-3.263a13.531,13.531,0,0,1,4.474-2.111,14.328,14.328,0,0,1,6.876-.281c4.145.856,6.37,3.506,6.491,7.735.06,2.109.01,4.222.016,6.332,0,1.469.012,1.473,1.19,2.2v4.156C216.159,1154.042,214.159,1153.1,213.329,1150.046Zm-.644-5.935a9.672,9.672,0,0,0-4.855-.84,6.945,6.945,0,0,0-2.119.627,2.737,2.737,0,0,0-1.656,3.141,3.071,3.071,0,0,0,2.587,2.353,5.76,5.76,0,0,0,5.389-1.854,2.968,2.968,0,0,0,.628-1.424A12.484,12.484,0,0,0,212.685,1144.111Z" transform="translate(-138.59 -905.331)"/><path class="a" d="M238.745,1136.582h-2.566v-4.015c.44-.02.843-.045,1.247-.056.366-.009.732,0,1.2,0,.284-2.206-.04-4.351.2-6.55h5.224v6.541h4.188v4.046h-4.079c-.046.47-.1.789-.1,1.107q-.011,4.284,0,8.567a5.786,5.786,0,0,0,.023.619c.109,1.038.634,1.636,1.677,1.6a25.408,25.408,0,0,0,3.094-.479c.321,1.216.67,2.544,1.042,3.956-2.544,1.129-5.042,1.878-7.754,1.207a4.267,4.267,0,0,1-3.292-3.766,13.852,13.852,0,0,1-.1-1.733c-.009-3.187-.005-6.372-.005-9.559Z" transform="translate(-138.406 -905.362)"/><path class="a" d="M338.653,1143.233c-1.338,1.245-2.654,2.435-3.915,3.68a1.583,1.583,0,0,0-.3,1.014c-.034,1.366-.01,2.731-.017,4.1,0,.4-.034.808-.055,1.287h-2.472v-27.872c.415-.022.814-.056,1.215-.06.366,0,.732.029,1.169.048a17.41,17.41,0,0,1,.139,3.705c.035,1.24.008,2.482.008,3.724v11.4c.678-.628,1.132-1.029,1.565-1.451,2.756-2.686,5.549-5.335,8.235-8.09a3.535,3.535,0,0,1,3.265-1.268c.241.036.486.038.992.074-2.658,2.837-5.365,5.35-8,8.117l8.3,11.553a5.245,5.245,0,0,1-2.62.12c-.279-.034-.54-.471-.753-.765q-3.059-4.221-6.1-8.458C339.124,1143.829,338.916,1143.574,338.653,1143.233Z" transform="translate(-137.934 -905.365)"/><path class="a" d="M306.357,1153.3a2.852,2.852,0,0,1-2.614-.367c-.749-.645-.445-1.623-.732-2.537-.27.214-.463.341-.626.5a9.945,9.945,0,0,1-8.314,2.755,6.153,6.153,0,0,1-5.518-6.75,5.1,5.1,0,0,1,2.25-3.7,9.618,9.618,0,0,1,5.608-1.717,19.394,19.394,0,0,1,3.089.207c1.018.139,2.018.4,3.126.631a7.35,7.35,0,0,0-.7-4.859,5.613,5.613,0,0,0-5.974-2.34,12.036,12.036,0,0,0-4.032,1.549c-.351.207-.7.41-1.19.693l-.918-1.719c3.411-2.284,6.969-3.43,10.948-2.061a6.576,6.576,0,0,1,4.477,5.483,15.487,15.487,0,0,1,.176,2.471c.022,2.649.005,5.3.012,7.948,0,.573-.063,1.167.616,1.5a.833.833,0,0,1,.307.613C306.386,1152.152,306.357,1152.723,306.357,1153.3Zm-3.64-9.107a13.535,13.535,0,0,0-8.327-.607,6.517,6.517,0,0,0-1.961,1.017,3.238,3.238,0,0,0-1.356,3.019,4.266,4.266,0,0,0,3.561,3.92,7.487,7.487,0,0,0,7.5-2.765,2.9,2.9,0,0,0,.553-1.456C302.778,1146.337,302.718,1145.344,302.718,1144.191Z" transform="translate(-138.148 -905.327)"/><path class="a" d="M234.721,1136.994c-.593.086-1.162.156-1.725.256a7.07,7.07,0,0,0-4.338,2.183,3.048,3.048,0,0,0-.8,2.138c.037,3.266.015,6.533.015,9.8v1.464h-5.081c-.242-.857-.337-18.031-.086-20.314,1.514-.087,3.058-.03,4.776-.032v3.861c3.547-3.747,4.532-4.293,7.244-4.033Z" transform="translate(-138.473 -905.331)"/><path class="a" d="M277.786,1126.33v2.232h-9.631v24.748h-2.71v-24.689h-9.621v-2.278C256.817,1126.077,276.627,1126.057,277.786,1126.33Z" transform="translate(-138.309 -905.361)"/><path class="a" d="M325.345,1148l2.439.741a4.738,4.738,0,0,1-1.311,2.173,9.939,9.939,0,0,1-12.848.888,10.891,10.891,0,0,1-1.44-15.676A10.149,10.149,0,0,1,323.941,1134a8.135,8.135,0,0,1,3.705,3.765l-2.446.828a3.935,3.935,0,0,1-.407-.448c-2.048-3.264-7.46-3.988-10.649-.348a8.743,8.743,0,0,0,1.173,12.133A6.812,6.812,0,0,0,325.345,1148Z" transform="translate(-138.045 -905.327)"/><path class="a" d="M286.918,1133.218v2.4c-.68.131-1.328.226-1.959.384a7.219,7.219,0,0,0-4.239,2.843,5.161,5.161,0,0,0-1.052,3.228c.062,3.229.021,6.46.021,9.689v1.471H277.2c-.267-.846-.382-17.264-.12-19.768h2.362v4.051c.591-.145.681-.6.9-.9a7.849,7.849,0,0,1,4.947-3.277A15.321,15.321,0,0,1,286.918,1133.218Z" transform="translate(-138.205 -905.326)"/></g></svg>