<svg xmlns="http://www.w3.org/2000/svg" width="135.25" height="27.979" viewBox="0 0 135.25 27.979"><defs><style>.a{fill:#062130;}</style></defs><g transform="translate(-86.636 -1106.916)"><path class="a" d="M248.2,1011.23v-10.754l9.2-4.1v.241q0,5.1,0,10.207a.932.932,0,0,1-.656.976l-7.87,3.164c-.171.069-.342.139-.513.207C248.314,1011.193,248.264,1011.208,248.2,1011.23Z" transform="translate(-151.648 123.543)"/><path class="a" d="M188.646,1000.635v10.905c-.095-.035-.166-.06-.236-.088l-7.265-2.9c-.282-.113-.564-.224-.845-.339a1,1,0,0,1-.663-.95c0-.048,0-.1,0-.143V996.6Z" transform="translate(-93 123.355)"/><path class="a" d="M219.622,911.024a3.781,3.781,0,0,1-.471,1.8,7.017,7.017,0,0,1-.362.636c-.53.807-.99,1.655-1.471,2.491q-.856,1.486-1.7,2.977c-.094.165-.181.335-.273.5a1.938,1.938,0,0,1-.386.533c-.14.126-.242.137-.375,0a2.509,2.509,0,0,1-.354-.445q-1.62-2.632-3.231-5.269c-.224-.365-.467-.719-.686-1.088a4.647,4.647,0,0,1-.581-1.415,3.808,3.808,0,0,1,.235-2.276,4.609,4.609,0,0,1,2.883-2.7,5.118,5.118,0,0,1,5.086.844,4.344,4.344,0,0,1,1.615,2.661c.021.1.038.211.048.318C219.609,910.738,219.614,910.881,219.622,911.024Zm-2.516.411a2.914,2.914,0,0,0-.4-1.628,2.374,2.374,0,0,0-3.828-.39,2.788,2.788,0,0,0,0,3.689,2.353,2.353,0,0,0,3.375.169A2.593,2.593,0,0,0,217.107,911.435Z" transform="translate(-118.674 200.472)"/><path class="a" d="M193.439,973.575l5.993,2.479c-.079.039-.13.067-.182.09l-8.808,3.924a.6.6,0,0,1-.516,0l-8.881-3.982c-.048-.021-.094-.046-.177-.086.093-.045.156-.081.224-.109q1.339-.546,2.68-1.089l2.73-1.108c.06-.024.121-.047.192-.074.034.048.067.089.094.133q.971,1.573,1.941,3.148c.109.177.2.363.314.54a2.085,2.085,0,0,0,.464.539.954.954,0,0,0,1.276,0,2.353,2.353,0,0,0,.55-.7l2-3.526C193.365,973.7,193.4,973.645,193.439,973.575Z" transform="translate(-94.054 143.05)"/><path class="a" d="M173.691,1142.8h-2.7v-.7c0-1.722.009-3.443-.007-5.165a4.974,4.974,0,0,0-.153-1.258,1.465,1.465,0,0,0-1.929-1.067,2.784,2.784,0,0,0-1.994,2.586c0,1.615,0,3.231,0,4.846v.738h-2.665V1132.36h2.388v1.735c.211-.231.317-.347.423-.465a4.509,4.509,0,0,1,4.526-1.366,2.437,2.437,0,0,1,1.676,1.363c.089.167.155.345.256.574.13-.144.244-.257.343-.382a4.292,4.292,0,0,1,4.309-1.607,2.5,2.5,0,0,1,1.89,1.464,5.079,5.079,0,0,1,.467,2.229c.026,2.189.009,4.379.007,6.568a3.331,3.331,0,0,1-.044.337c-.862.022-1.72.011-2.644.005-.012-.266-.031-.492-.031-.717,0-1.679.011-3.359-.01-5.037a5.507,5.507,0,0,0-.182-1.444,1.436,1.436,0,0,0-1.9-1.017,2.868,2.868,0,0,0-2.022,2.647c0,1.594,0,3.188,0,4.783Z" transform="translate(-37.552 -11.669)"/><path class="a" d="M138.886,1137.706l1.205-2.348c.177.105.316.185.451.27a7.972,7.972,0,0,0,4.617,1.416,4.393,4.393,0,0,0,1.062-.179,1.288,1.288,0,0,0,.351-2.335,5.282,5.282,0,0,0-1.084-.525c-.8-.27-1.633-.469-2.434-.747a12.973,12.973,0,0,1-1.992-.831,3.016,3.016,0,0,1-1.6-2.786,4.226,4.226,0,0,1,3.564-4.4,8.2,8.2,0,0,1,6.493,1.327c.033.021.051.066.106.141l-1.174,2.155c-.181-.107-.336-.2-.489-.29a6.325,6.325,0,0,0-3.614-1.053,3.816,3.816,0,0,0-1.055.206,1.311,1.311,0,0,0-.931,1.177,1.234,1.234,0,0,0,.725,1.363,15.619,15.619,0,0,0,1.789.651c.748.238,1.508.44,2.26.664.182.055.358.135.535.205,2.3.92,2.847,2.816,2.3,4.873a3.5,3.5,0,0,1-1.82,2.2,6.609,6.609,0,0,1-3.2.715,10.429,10.429,0,0,1-5.635-1.566C139.188,1137.929,139.072,1137.838,138.886,1137.706Z" transform="translate(-25.284 -8.235)"/><path class="a" d="M206.351,1141.324l-.424.389a4.673,4.673,0,0,1-4.361,1.2,3.275,3.275,0,0,1-2.553-2.7,3.077,3.077,0,0,1,1.869-3.359,6.6,6.6,0,0,1,4.6-.291l.421.11a1.95,1.95,0,0,0-1.425-2.559,4.472,4.472,0,0,0-3.079.5c-.338.168-.663.361-1.034.565l-.812-1.676a6.948,6.948,0,0,1,2.3-1.084,7.358,7.358,0,0,1,3.531-.144,3.83,3.83,0,0,1,3.333,3.972c.031,1.083.005,2.168.008,3.252,0,.755.006.757.611,1.13v2.135C207.8,1143.376,206.777,1142.891,206.351,1141.324Zm-.331-3.048a4.967,4.967,0,0,0-2.493-.432,3.562,3.562,0,0,0-1.088.322,1.405,1.405,0,0,0-.85,1.613,1.577,1.577,0,0,0,1.328,1.208,2.959,2.959,0,0,0,2.768-.952,1.524,1.524,0,0,0,.323-.731A6.414,6.414,0,0,0,206.02,1138.276Z" transform="translate(-54.366 -11.658)"/><path class="a" d="M237.5,1131.415h-1.318v-2.062c.226-.01.433-.023.64-.029.188,0,.376,0,.618,0,.146-1.133-.021-2.235.1-3.364h2.683v3.359h2.151v2.078h-2.095c-.024.242-.054.405-.054.569q-.005,2.2,0,4.4a2.975,2.975,0,0,0,.012.318c.056.533.326.84.861.823a13.05,13.05,0,0,0,1.589-.246l.535,2.032a6.016,6.016,0,0,1-3.982.62,2.192,2.192,0,0,1-1.691-1.935,7.121,7.121,0,0,1-.05-.89c0-1.637,0-3.272,0-4.909Z" transform="translate(-72.365 -8.678)"/><path class="a" d="M335.364,1134.548c-.687.639-1.363,1.25-2.011,1.89a.812.812,0,0,0-.155.521c-.017.7-.005,1.4-.009,2.1,0,.207-.018.415-.028.661h-1.27V1125.41c.213-.011.418-.029.624-.031.188,0,.376.015.6.025a8.94,8.94,0,0,1,.071,1.9c.018.637,0,1.275,0,1.913v5.856c.348-.323.581-.528.8-.745,1.415-1.38,2.85-2.74,4.229-4.155a1.816,1.816,0,0,1,1.677-.651c.124.018.25.02.509.038-1.365,1.457-2.755,2.748-4.107,4.168l4.264,5.933a2.694,2.694,0,0,1-1.345.062c-.143-.017-.277-.242-.387-.393q-1.571-2.167-3.131-4.343C335.606,1134.854,335.5,1134.723,335.364,1134.548Z" transform="translate(-118.681 -8.397)"/><path class="a" d="M297.683,1143.418a1.465,1.465,0,0,1-1.342-.188c-.385-.331-.229-.833-.376-1.3-.139.11-.238.175-.322.256a5.108,5.108,0,0,1-4.27,1.415,3.16,3.16,0,0,1-2.834-3.467,2.617,2.617,0,0,1,1.156-1.9,4.94,4.94,0,0,1,2.88-.882,9.958,9.958,0,0,1,1.586.106c.523.071,1.036.206,1.606.324a3.774,3.774,0,0,0-.362-2.5,2.883,2.883,0,0,0-3.068-1.2,6.183,6.183,0,0,0-2.071.8c-.18.106-.361.211-.611.356l-.472-.883a6.106,6.106,0,0,1,5.622-1.059,3.377,3.377,0,0,1,2.3,2.816,7.953,7.953,0,0,1,.09,1.269c.011,1.36,0,2.721.006,4.082,0,.294-.033.6.316.768a.427.427,0,0,1,.157.315C297.7,1142.829,297.683,1143.122,297.683,1143.418Zm-1.869-4.677a6.951,6.951,0,0,0-4.276-.312,3.344,3.344,0,0,0-1.007.522,1.663,1.663,0,0,0-.7,1.55,2.191,2.191,0,0,0,1.829,2.013,3.844,3.844,0,0,0,3.854-1.42,1.486,1.486,0,0,0,.284-.748C295.845,1139.843,295.814,1139.333,295.814,1138.741Z" transform="translate(-97.696 -12.079)"/><path class="a" d="M228.8,1134.692c-.3.044-.6.08-.886.131a3.632,3.632,0,0,0-2.228,1.121,1.566,1.566,0,0,0-.413,1.1c.019,1.677.008,3.355.008,5.032v.752h-2.609c-.124-.44-.173-9.26-.044-10.432.778-.044,1.57-.016,2.453-.016v1.983c1.822-1.925,2.328-2.2,3.72-2.071Z" transform="translate(-65.771 -11.728)"/><path class="a" d="M267.1,1126.235v1.146h-4.946v12.71h-1.392v-12.679h-4.941v-1.17C256.333,1126.1,266.507,1126.095,267.1,1126.235Z" transform="translate(-81.871 -8.763)"/><path class="a" d="M317.643,1140.7l1.253.381a2.432,2.432,0,0,1-.674,1.116,5.1,5.1,0,0,1-6.6.456,5.593,5.593,0,0,1-.74-8.051,5.212,5.212,0,0,1,6.038-1.091,4.178,4.178,0,0,1,1.9,1.934l-1.256.425a2.016,2.016,0,0,1-.209-.23,3.462,3.462,0,0,0-5.469-.179,4.49,4.49,0,0,0,.6,6.231A3.5,3.5,0,0,0,317.643,1140.7Z" transform="translate(-107.851 -12.077)"/><path class="a" d="M282.062,1133.218v1.235c-.349.067-.682.116-1.006.2a3.708,3.708,0,0,0-2.177,1.46,2.65,2.65,0,0,0-.54,1.658c.032,1.658.011,3.318.011,4.976v.756h-1.277c-.137-.435-.2-8.866-.061-10.152h1.213v2.08c.3-.074.35-.307.462-.46a4.032,4.032,0,0,1,2.541-1.683A7.849,7.849,0,0,1,282.062,1133.218Z" transform="translate(-92.087 -12.191)"/></g></svg>